#!OML:ASF F:\VICON\USERDATA\INSTALL\rory3\rory3.ASF
:FULLY-SPECIFIED
:DEGREES
4652
root 1.59648 18.9912 6.51505 -0.93222 4.21975 -2.72953
lowerback 4.51888 0.534908 -2.47726
upperback 0.551084 0.539789 -2.45474
thorax -1.96665 0.280758 -1.16629
lowerneck -4.24613 -11.6279 -11.4888
upperneck -3.20819 -15.4118 22.1418
head 2.53425 -7.51922 7.78925
rclavicle 5.56597e-015 2.06736e-014
rhumerus 44.8327 -42.854 -52.8307
rradius 64.1582
rwrist -70.9314
rhand -6.59249 7.12793
rfingers 7.12502
rthumb 19.2627 -21.9381
lclavicle 5.56597e-015 2.06736e-014
lhumerus -28.7332 -4.35246 70.7591
lradius 30.7787
lwrist -5.40221
lhand -27.3277 25.5468
lfingers 7.12502
lthumb -0.736599 55.5253
rfemur -4.64727 16.8753 9.89311
rtibia 22.1618
rfoot -6.67977 -29.6645
rtoes -1.94753
lfemur -2.49708 -9.97114 -14.8404
ltibia 17.1085
lfoot -11.5661 14.2159
ltoes -8.47242
4653
root 1.6335 18.9965 6.50929 -0.996139 4.63657 -2.75912
lowerback 4.61317 0.510424 -2.64023
upperback 0.524653 0.493865 -2.46536
thorax -2.04806 0.259759 -1.08439
lowerneck -4.1387 -11.5668 -11.6618
upperneck -3.12522 -15.3545 22.3973
head 2.57005 -7.49102 7.90754
rclavicle 5.96354e-016 6.36111e-015
rhumerus 45.3025 -42.8662 -53.3366
rradius 63.9623
rwrist -71.0055
rhand -6.6914 6.93882
rfingers 7.12502
rthumb 19.1676 -22.1366
lclavicle 5.96354e-016 6.36111e-015
lhumerus -28.8581 -4.43323 70.8128
lradius 30.6124
lwrist -5.52316
lhand -27.3232 25.3364
lfingers 7.12502
lthumb -0.732276 55.3149
rfemur -4.5636 16.7522 9.79554
rtibia 22.2451
rfoot -6.10288 -29.7544
rtoes -2.6495
lfemur -2.51237 -9.99462 -14.922
ltibia 17.0401
lfoot -11.3697 13.9022
ltoes -8.20598
4654
root 1.66913 19.0007 6.50437 -1.07461 4.86608 -2.86864
lowerback 4.64888 0.543928 -2.73189
upperback 0.581382 0.534623 -2.45472
thorax -2.01064 0.28039 -1.02463
lowerneck -4.18049 -11.6177 -11.7251
upperneck -3.17742 -15.4239 22.6512
head 2.60502 -7.52263 7.98755
rclavicle 1.37161e-014 9.54166e-015
rhumerus 46.0051 -42.9385 -54.0437
rradius 63.7497
rwrist -70.7937
rhand -6.67503 5.68308
rfingers 7.12502
rthumb 19.1833 -23.3908
lclavicle 1.37161e-014 9.54166e-015
lhumerus -28.8025 -4.42004 70.856
lradius 30.35
lwrist -5.799
lhand -27.2723 25.3129
lfingers 7.12502
lthumb -0.683052 55.2915
rfemur -4.53615 16.8532 9.79769
rtibia 22.3556
rfoot -5.42263 -29.8848
rtoes -2.85791
lfemur -2.50711 -10.1153 -14.9157
ltibia 17.0094
lfoot -11.3478 13.7705
ltoes -7.14836
4655
root 1.70736 19.0044 6.50343 -1.24197 5.04759 -2.97366
lowerback 4.72382 0.593869 -2.78791
upperback 0.675263 0.598294 -2.46005
thorax -1.95665 0.311789 -1.00287
lowerneck -4.20024 -11.9817 -11.4916
upperneck -3.39406 -15.9062 22.7166
head 2.61588 -7.7691 7.91727
rclavicle 8.64713e-015 -2.22639e-014
rhumerus 46.5317 -42.9305 -54.6204
rradius 63.6296
rwrist -70.4449
rhand -6.98683 5.73415
rfingers 7.12502
rthumb 18.8835 -23.3692
lclavicle 8.64713e-015 -2.22639e-014
lhumerus -28.7263 -4.45989 70.8866
lradius 30.1118
lwrist -5.98355
lhand -27.1547 25.6116
lfingers 7.12502
lthumb -0.569522 55.5906
rfemur -4.40148 17.0259 9.80311
rtibia 22.4441
rfoot -4.88286 -29.9953
rtoes -2.48581
lfemur -2.3819 -10.2545 -14.9676
ltibia 17.0883
lfoot -11.4734 13.7049
ltoes -6.65811
4656
root 1.74551 19.0097 6.49778 -1.33044 5.28104 -3.08205
lowerback 4.81375 0.606474 -2.80264
upperback 0.679902 0.609694 -2.49391
thorax -2.00206 0.317848 -1.03132
lowerneck -3.95755 -12.0343 -11.5123
upperneck -3.56074 -15.9825 22.9855
head 2.56999 -7.82723 8.01439
rclavicle 7.05686e-015 1.27222e-014
rhumerus 46.6884 -42.7633 -54.9675
rradius 63.6586
rwrist -69.9908
rhand -7.35513 6.23785
rfingers 7.12502
rthumb 18.5292 -22.8997
lclavicle 7.05686e-015 1.27222e-014
lhumerus -28.7828 -4.47916 70.8387
lradius 29.903
lwrist -6.16482
lhand -27.0914 25.9982
lfingers 7.12502
lthumb -0.508371 55.9773
rfemur -4.34297 17.0647 9.7878
rtibia 22.522
rfoot -4.40118 -30.0354
rtoes -2.42814
lfemur -2.40698 -10.2645 -14.9939
ltibia 17.2322
lfoot -11.6015 13.4942
ltoes -5.04449
4657
root 1.7798 19.0139 6.48549 -1.34559 5.47528 -3.30894
lowerback 4.85114 0.62423 -2.76172
upperback 0.68576 0.634788 -2.45653
thorax -2.017 0.330264 -1.01779
lowerneck -3.797 -12.0892 -11.6502
upperneck -3.77366 -16.0454 23.2971
head 2.5375 -7.87495 8.14073
rclavicle 1.14301e-014 -4.45278e-014
rhumerus 46.7927 -42.5496 -55.2475
rradius 63.7589
rwrist -69.3253
rhand -7.7821 6.17065
rfingers 7.12502
rthumb 18.1185 -23.0055
lclavicle 1.14301e-014 -4.45278e-014
lhumerus -28.8425 -4.35777 70.8223
lradius 29.7177
lwrist -6.38746
lhand -27.1566 25.8746
lfingers 7.12502
lthumb -0.571338 55.8536
rfemur -4.41557 17.1657 9.88465
rtibia 22.63
rfoot -4.06119 -30.0864
rtoes -2.66441
lfemur -2.6179 -10.2 -14.8313
ltibia 17.4128
lfoot -11.5703 13.2525
ltoes -3.63711
4658
root 1.81286 19.0139 6.47213 -1.34989 5.69471 -3.46492
lowerback 4.84437 0.658903 -2.74994
upperback 0.744243 0.683847 -2.47244
thorax -1.95282 0.353952 -1.04332
lowerneck -3.91277 -12.1778 -11.6716
upperneck -3.93823 -16.1438 23.5508
head 2.55642 -7.92202 8.20775
rclavicle -2.39536e-014 9.54166e-015
rhumerus 46.6673 -42.3408 -55.2828
rradius 63.9079
rwrist -68.5564
rhand -8.39325 6.21201
rfingers 7.12502
rthumb 17.5304 -23.0176
lclavicle -2.39536e-014 9.54166e-015
lhumerus -28.782 -4.32902 70.8182
lradius 29.4631
lwrist -6.51302
lhand -27.4651 25.6466
lfingers 7.12502
lthumb -0.869283 55.6246
rfemur -4.53406 17.2746 9.90535
rtibia 22.8074
rfoot -3.75105 -30.1957
rtoes -2.5492
lfemur -2.85585 -10.2441 -14.7365
ltibia 17.5998
lfoot -11.4318 13.0853
ltoes -4.91854
4659
root 1.84556 19.0124 6.46068 -1.38712 5.98802 -3.5387
lowerback 4.92973 0.661171 -2.84701
upperback 0.735031 0.677188 -2.48918
thorax -2.01098 0.351772 -1.00705
lowerneck -3.78407 -12.2062 -11.7827
upperneck -4.08589 -16.1777 23.8358
head 2.53875 -7.95131 8.3221
rclavicle 2.39536e-014 1.74931e-014
rhumerus 46.1223 -41.8868 -54.8919
rradius 64.1579
rwrist -67.8993
rhand -9.03936 6.68848
rfingers 7.12502
rthumb 16.9085 -22.5955
lclavicle 2.39536e-014 1.74931e-014
lhumerus -28.8281 -4.2364 70.7816
lradius 29.1466
lwrist -6.69581
lhand -27.4644 25.5125
lfingers 7.12502
lthumb -0.868594 55.4904
rfemur -4.5987 17.2829 9.85956
rtibia 22.9994
rfoot -3.26172 -30.3029
rtoes -1.93385
lfemur -3.04521 -10.3137 -14.745
ltibia 17.8022
lfoot -11.3847 12.8433
ltoes -6.14734
4660
root 1.87979 19.0119 6.44929 -1.44304 6.28667 -3.52792
lowerback 5.04692 0.657283 -3.01393
upperback 0.740897 0.657027 -2.52214
thorax -2.07196 0.343351 -0.947804
lowerneck -3.64746 -12.2766 -11.9397
upperneck -4.20132 -16.2766 24.1437
head 2.54739 -8.01154 8.44268
rclavicle 1.99779e-014 -6.67916e-014
rhumerus 45.5367 -41.3758 -54.5552
rradius 64.5556
rwrist -67.3348
rhand -9.67117 6.66818
rfingers 7.12502
rthumb 16.3003 -22.6667
lclavicle 1.99779e-014 -6.67916e-014
lhumerus -28.8512 -4.06743 70.7381
lradius 28.8201
lwrist -6.8702
lhand -27.3274 25.4774
lfingers 7.12502
lthumb -0.736327 55.4558
rfemur -4.65163 17.2162 9.7277
rtibia 23.2217
rfoot -2.52547 -30.3242
rtoes -2.29223
lfemur -3.18742 -10.3855 -14.8745
ltibia 18.0056
lfoot -11.3572 12.6445
ltoes -6.50408
4661
root 1.9149 19.0123 6.43643 -1.5044 6.47362 -3.67011
lowerback 5.10874 0.690297 -3.01831
upperback 0.838007 0.702152 -2.49573
thorax -2.00717 0.364967 -0.921101
lowerneck -3.94488 -12.3326 -12.2531
upperneck -4.12622 -16.3647 24.6982
head 2.7246 -8.02726 8.63488
rclavicle 6.4605e-015 -2.70347e-014
rhumerus 45.0572 -40.9283 -54.2229
rradius 65.0142
rwrist -67.0051
rhand -9.9876 5.99955
rfingers 7.12502
rthumb 15.9956 -23.3601
lclavicle 6.4605e-015 -2.70347e-014
lhumerus -28.789 -3.78502 70.7226
lradius 28.5783
lwrist -7.06731
lhand -27.2997 25.1256
lfingers 7.12502
lthumb -0.709554 55.1041
rfemur -4.73571 17.1983 9.74988
rtibia 23.4216
rfoot -1.95147 -30.3355
rtoes -2.71711
lfemur -3.36733 -10.3473 -14.83
ltibia 18.2769
lfoot -11.3556 12.4194
ltoes -6.35666
4662
root 1.94636 19.0118 6.42384 -1.61005 6.59669 -3.77775
lowerback 5.20481 0.740261 -3.10578
upperback 0.946481 0.764047 -2.4647
thorax -1.95112 0.395426 -0.844722
lowerneck -4.14556 -12.2792 -12.5782
upperneck -4.06847 -16.2997 25.1933
head 2.8477 -7.9745 8.83918
rclavicle 8.24956e-015 -3.02153e-014
rhumerus 44.4572 -40.3755 -53.7992
rradius 65.5913
rwrist -66.9611
rhand -10.2528 5.26799
rfingers 7.12502
rthumb 15.7402 -24.1119
lclavicle 8.24956e-015 -3.02153e-014
lhumerus -28.7506 -3.42832 70.6831
lradius 28.3238
lwrist -7.30419
lhand -27.3998 25.4189
lfingers 7.12502
lthumb -0.806182 55.3971
rfemur -4.76261 17.2501 9.76727
rtibia 23.578
rfoot -1.81769 -30.5331
rtoes -2.32975
lfemur -3.50765 -10.2527 -14.8215
ltibia 18.614
lfoot -11.4155 12.1848
ltoes -6.066
4663
root 1.97522 19.011 6.4118 -1.77602 6.66362 -3.92026
lowerback 5.41558 0.807481 -3.16296
upperback 0.975502 0.840887 -2.45907
thorax -2.0406 0.434711 -0.815293
lowerneck -3.60588 -12.4425 -12.3329
upperneck -4.62628 -16.4626 24.9282
head 2.57533 -8.11974 8.74101
rclavicle -2.26615e-014 -4.77083e-015
rhumerus 43.5387 -39.5929 -53.1822
rradius 66.1315
rwrist -66.9828
rhand -10.6022 5.38679
rfingers 7.12502
rthumb 15.4037 -24.0193
lclavicle -2.26615e-014 -4.77083e-015
lhumerus -28.7321 -3.22298 70.5981
lradius 27.9013
lwrist -7.30561
lhand -27.4043 26.181
lfingers 7.12502
lthumb -0.81061 56.1592
rfemur -4.72436 17.4339 9.85996
rtibia 23.7061
rfoot -1.98691 -30.8167
rtoes -1.59577
lfemur -3.57225 -10.1535 -14.7772
ltibia 18.9703
lfoot -11.5936 11.9942
ltoes -5.61071
4664
root 2.00561 19.0124 6.4013 -1.88421 6.71878 -4.07044
lowerback 5.57318 0.883644 -3.17917
upperback 0.970941 0.932958 -2.46282
thorax -2.13447 0.48153 -0.819534
lowerneck -3.04544 -12.7358 -12.0235
upperneck -5.27134 -16.7938 24.6256
head 2.29489 -8.35257 8.60792
rclavicle 1.39149e-015 3.18055e-015
rhumerus 42.3863 -38.6467 -52.3532
rradius 66.6654
rwrist -67.1057
rhand -11.1199 6.15559
rfingers 7.12502
rthumb 14.905 -23.2882
lclavicle 1.39149e-015 3.18055e-015
lhumerus -28.5818 -2.98828 70.5367
lradius 27.3315
lwrist -7.35713
lhand -27.3836 26.51
lfingers 7.12502
lthumb -0.790541 56.4882
rfemur -4.7678 17.5169 9.93382
rtibia 23.8785
rfoot -1.82517 -30.9505
rtoes -1.51151
lfemur -3.6503 -10.0843 -14.7304
ltibia 19.2786
lfoot -11.8133 11.8661
ltoes -3.71739
4665
root 2.03864 19.0104 6.39065 -1.94451 6.81939 -4.06759
lowerback 5.60983 0.945705 -3.27943
upperback 1.06254 1.01022 -2.52079
thorax -2.06192 0.519422 -0.828457
lowerneck -3.17967 -12.8113 -12.1711
upperneck -5.39033 -16.8824 25.0271
head 2.35965 -8.39177 8.73905
rclavicle 1.03368e-014 6.36111e-015
rhumerus 41.3578 -37.7628 -51.609
rradius 67.3043
rwrist -67.4254
rhand -11.3798 6.24967
rfingers 7.12502
rthumb 14.6546 -23.2125
lclavicle 1.03368e-014 6.36111e-015
lhumerus -28.3937 -2.6383 70.4242
lradius 26.9615
lwrist -7.88582
lhand -27.1366 26.963
lfingers 7.12502
lthumb -0.552006 56.942
rfemur -4.86375 17.4317 9.81072
rtibia 24.0922
rfoot -1.40934 -30.9654
rtoes -1.60261
lfemur -3.7483 -10.0931 -14.8642
ltibia 19.5515
lfoot -11.9321 11.7344
ltoes -2.91208
